<svg width="130" height="112" viewBox="0 0 130 112" fill="none" xmlns="http://www.w3.org/2000/svg">
<path d="M127.286 48.0425C120.556 20.2625 94.666 0.8125 64.336 0.8125C48.966 0.8125 34.386 6.2525 23.286 16.1225C10.126 26.6925 1.89604 43.0925 0.836044 61.0225C-0.233956 79.0825 6.05602 96.4925 18.096 108.783C19.606 110.433 21.606 111.342 23.806 111.342C24.636 111.342 25.486 111.213 26.336 110.943C30.846 109.473 36.256 107.703 37.756 103.283C38.576 100.873 38.066 98.2825 36.226 95.5925C30.526 87.4625 26.886 79.5325 25.066 71.3025C24.146 66.9925 21.146 64.3925 17.026 64.3925C16.236 64.3925 15.446 64.4925 14.696 64.6525C15.156 47.0625 22.456 33.3625 36.436 23.8825C44.986 17.7325 54.796 14.5125 64.896 14.5125C78.946 14.5125 92.626 20.5825 102.426 31.1725C110.986 40.4225 115.636 52.1825 115.756 64.6825C114.906 64.5025 114.076 64.4025 113.286 64.4025C109.236 64.4025 106.266 66.8325 105.336 70.9025C103.466 79.4025 99.766 87.4825 94.026 95.6525C91.936 98.6225 91.986 101.183 92.396 102.803C92.806 104.413 93.956 106.663 97.156 108.253C98.066 108.613 98.7061 108.913 99.3761 109.213C101.486 110.183 103.876 111.273 106.436 111.273C108.866 111.273 110.986 110.263 112.576 108.353C128.306 90.7025 133.286 70.3825 127.306 48.0325L127.286 48.0425Z" fill="black"/>
</svg>
