<svg width="821" height="155" viewBox="0 0 821 155" fill="none" xmlns="http://www.w3.org/2000/svg">
<g clip-path="url(#clip0_12494_54699)">
<path d="M34.0096 151.269L0.289649 52.2789C-0.570351 49.9189 0.509649 48.6289 2.86965 48.6289H19.3996C21.1196 48.6289 22.6296 49.4989 23.2696 51.2089L47.7496 127.439L73.7297 51.2089C74.3697 49.4989 75.8696 48.6289 77.5896 48.6289H94.7696C96.4796 48.6289 97.9896 49.4989 98.6296 51.2089L124.61 127.439L149.09 51.2089C149.74 49.4989 151.02 48.6289 152.74 48.6289H169.49C171.85 48.6289 172.71 49.9189 171.85 52.2789L138.35 151.259C137.7 152.979 136.2 153.839 134.49 153.839H116.46C114.74 153.839 113.23 152.979 112.6 151.259L86.1796 75.0389L59.7696 151.259C59.1296 152.979 57.6296 153.839 55.9096 153.839H37.8797C36.1597 153.839 34.6496 152.979 34.0196 151.259L34.0096 151.269Z" fill="white"/>
<path d="M183.609 98.2305C183.609 67.3105 205.079 43.4805 237.079 43.4805C269.079 43.4805 286.889 67.3105 286.889 93.5105C286.889 102.74 284.959 107.25 277.009 107.25H206.159C208.949 124 221.409 135.16 242.229 135.16C252.539 135.16 260.909 132.58 269.289 127C270.579 126.14 271.869 126.36 272.729 127.65L278.739 135.81C280.029 137.52 279.599 138.81 277.879 140.53C268.639 149.55 255.119 153.84 240.299 153.84C205.939 153.84 183.619 129.57 183.619 98.2205L183.609 98.2305ZM266.279 90.5005C264.989 73.3205 253.609 63.0205 237.079 63.0205C220.549 63.0205 208.299 73.1105 205.939 90.5005H266.279Z" fill="white"/>
<path d="M304.789 150.31V3.22C304.789 1.29 305.869 0 307.799 0H324.979C326.909 0 327.979 1.29 327.979 3.22V150.31C327.979 152.24 326.909 153.53 324.979 153.53H307.799C305.869 153.53 304.789 152.24 304.789 150.31Z" fill="white"/>
<path d="M345.879 98.4505C345.879 67.1005 369.279 43.4805 400.629 43.4805C417.809 43.4805 431.769 50.5605 440.779 61.7205C442.069 63.4405 442.069 64.9505 440.779 66.2305L431.119 75.4605C429.399 77.1805 427.259 76.7505 425.959 75.2505C419.739 69.0305 412.649 64.9405 401.699 64.9405C381.939 64.9405 368.199 79.1105 368.199 98.4405C368.199 117.77 381.939 132.36 402.129 132.36C412.859 132.36 419.949 128.29 425.959 122.06C427.459 120.56 429.609 120.12 431.339 121.84L440.999 131.07C442.289 132.36 442.289 133.86 440.999 135.58C431.979 146.74 418.029 153.83 401.059 153.83C369.499 153.83 345.879 129.99 345.879 98.4305V98.4505Z" fill="white"/>
<path d="M609.65 139.343C609.65 131.183 616.3 124.523 624.46 124.523C632.62 124.523 639.07 131.183 639.07 139.343C639.07 147.503 632.41 153.943 624.46 153.943C616.51 153.943 609.65 147.503 609.65 139.343Z" fill="white"/>
<path d="M656.9 98.7816C656.9 67.6516 677.51 43.6016 707.57 43.6016C724.97 43.6016 737.42 51.3316 744.72 63.5716L745.15 49.4016C745.15 47.4716 746.23 46.1716 748.16 46.1716H763.83C765.76 46.1716 766.84 47.4616 766.84 49.4016V150.802C766.84 152.732 765.76 154.022 763.83 154.022H748.16C746.23 154.022 745.15 152.732 745.15 150.802L744.73 134.212C737.21 146.452 724.75 153.972 707.58 153.972C677.53 153.972 656.91 130.132 656.91 98.7816H656.9ZM712.08 132.702C730.76 132.702 743.86 119.182 743.86 98.9916C743.86 78.8016 730.76 64.8416 712.08 64.8416C693.4 64.8416 679.45 78.5816 679.45 98.7716C679.45 118.962 693.19 132.702 712.08 132.702Z" fill="white"/>
<path d="M793.951 13.4819C793.951 6.18187 799.751 0.171875 807.481 0.171875C815.211 0.171875 820.791 6.18187 820.791 13.4819C820.791 20.7819 814.991 27.0019 807.481 27.0019C799.971 27.0019 793.951 20.9919 793.951 13.4819ZM795.671 49.3919C795.671 47.4619 796.741 46.1619 798.681 46.1619H816.071C818.001 46.1619 819.081 47.4519 819.081 49.3919V150.792C819.081 152.722 818.001 154.012 816.071 154.012H798.681C796.741 154.012 795.671 152.722 795.671 150.792V49.3919Z" fill="white"/>
<path d="M587.87 90.7105C581.14 62.9305 555.25 43.4805 524.92 43.4805C509.55 43.4805 494.97 48.9205 483.87 58.7905C470.71 69.3605 462.48 85.7605 461.42 103.69C460.35 121.75 466.64 139.16 478.68 151.45C480.19 153.1 482.19 154.01 484.39 154.01C485.22 154.01 486.07 153.88 486.92 153.61C491.43 152.14 496.84 150.37 498.34 145.95C499.16 143.54 498.65 140.95 496.81 138.26C491.11 130.13 487.47 122.2 485.65 113.97C484.73 109.66 481.73 107.06 477.61 107.06C476.82 107.06 476.03 107.16 475.28 107.32C475.74 89.7305 483.04 76.0305 497.02 66.5505C505.57 60.4005 515.38 57.1805 525.48 57.1805C539.53 57.1805 553.21 63.2505 563.01 73.8405C571.57 83.0905 576.22 94.8505 576.34 107.35C575.49 107.17 574.66 107.07 573.87 107.07C569.82 107.07 566.85 109.5 565.92 113.57C564.05 122.07 560.35 130.15 554.61 138.32C552.52 141.29 552.57 143.85 552.98 145.47C553.39 147.08 554.54 149.33 557.74 150.92C558.65 151.28 559.29 151.58 559.96 151.88C562.07 152.85 564.46 153.94 567.02 153.94C569.45 153.94 571.57 152.93 573.16 151.02C588.89 133.37 593.87 113.05 587.89 90.7005L587.87 90.7105Z" fill="white"/>
</g>
<defs>
<clipPath id="clip0_12494_54699">
<rect width="820.8" height="154.01" fill="white"/>
</clipPath>
</defs>
</svg>
